<svg width="515" height="478" viewBox="0 0 515 478" fill="none" xmlns="http://www.w3.org/2000/svg">
<path d="M129.147 188.561C148.896 154.355 198.268 154.355 218.016 188.561L340.212 400.211C359.961 434.417 335.275 477.174 295.778 477.174L51.3855 477.174C11.8878 477.174 -12.7982 434.416 6.95066 400.21L129.147 188.561Z" fill="url(#paint0_linear_918_313)"/>
<path d="M462.67 0C502.167 0.0011086 526.853 42.758 507.105 76.9635L359.967 331.81L262.45 162.906C229.598 106.006 155.768 96.4375 109.124 134.19L76.0841 76.9635C56.336 42.758 81.0219 0.00114445 120.518 0H462.67Z" fill="url(#paint1_linear_918_313)"/>
<defs>
<linearGradient id="paint0_linear_918_313" x1="173.582" y1="162.906" x2="128.273" y2="342.488" gradientUnits="userSpaceOnUse">
<stop stop-color="#FC8CC2"/>
<stop offset="1" stop-color="#E0378A"/>
</linearGradient>
<linearGradient id="paint1_linear_918_313" x1="474.61" y1="-119.293" x2="343.772" y2="201.388" gradientUnits="userSpaceOnUse">
<stop stop-color="#3175FE"/>
<stop offset="1" stop-color="#0B3486"/>
</linearGradient>
</defs>
</svg>
