<svg width="478" height="515" viewBox="0 0 478 515" fill="none" xmlns="http://www.w3.org/2000/svg">
<path d="M288.614 129.147C322.82 148.896 322.82 198.268 288.614 218.016L76.9638 340.212C42.7578 359.961 0.000364147 335.275 0.000365873 295.777L0.000376556 51.3855C0.000378282 11.8878 42.7579 -12.7982 76.9639 6.95065L288.614 129.147Z" fill="url(#paint0_linear_918_313)"/>
<path d="M477.174 462.67C477.173 502.167 434.416 526.853 400.211 507.105L145.364 359.967L314.268 262.45C371.168 229.598 380.737 155.768 342.984 109.124L400.211 76.0838C434.416 56.3357 477.173 81.0216 477.174 120.518L477.174 462.67Z" fill="url(#paint1_linear_918_313)"/>
<defs>
<linearGradient id="paint0_linear_918_313" x1="314.268" y1="173.582" x2="134.687" y2="128.273" gradientUnits="userSpaceOnUse">
<stop stop-color="#FC8CC2"/>
<stop offset="1" stop-color="#E0378A"/>
</linearGradient>
<linearGradient id="paint1_linear_918_313" x1="596.468" y1="474.61" x2="275.786" y2="343.772" gradientUnits="userSpaceOnUse">
<stop stop-color="#3175FE"/>
<stop offset="1" stop-color="#0B3486"/>
</linearGradient>
</defs>
</svg>
