<svg width="515" height="515" viewBox="0 0 515 515" fill="none" xmlns="http://www.w3.org/2000/svg">
<rect width="515" height="515" rx="30" fill="#0F172A"/>
<path d="M289.508 176.886C311.071 189.335 311.071 220.459 289.508 232.908L156.087 309.939C134.524 322.389 107.57 306.827 107.57 281.928L107.57 127.866C107.57 102.967 134.524 87.4051 156.087 99.8545L289.508 176.886Z" fill="url(#paint0_linear_918_330)"/>
<path d="M408.375 387.135C408.374 412.033 381.421 427.595 359.858 415.146L199.206 322.392L305.681 260.918C341.55 240.209 347.582 193.667 323.783 164.263L359.858 143.435C381.421 130.986 408.374 146.548 408.375 171.446L408.375 387.135Z" fill="url(#paint1_linear_918_330)"/>
<defs>
<linearGradient id="paint0_linear_918_330" x1="305.681" y1="204.897" x2="192.474" y2="176.334" gradientUnits="userSpaceOnUse">
<stop stop-color="#FC8CC2"/>
<stop offset="1" stop-color="#E0378A"/>
</linearGradient>
<linearGradient id="paint1_linear_918_330" x1="483.576" y1="394.662" x2="281.422" y2="312.183" gradientUnits="userSpaceOnUse">
<stop stop-color="#3175FE"/>
<stop offset="1" stop-color="#0B3486"/>
</linearGradient>
</defs>
</svg>
