<svg width="515" height="515" viewBox="0 0 515 515" fill="none" xmlns="http://www.w3.org/2000/svg">
<rect width="515" height="515" rx="30" fill="#0F172A"/>
<path d="M177.358 225.964C189.807 204.401 220.931 204.401 233.381 225.964L310.412 359.386C322.861 380.949 307.299 407.903 282.4 407.903H128.338C103.439 407.903 87.8775 380.949 100.327 359.386L177.358 225.964Z" fill="url(#paint0_linear_918_330)"/>
<path d="M387.608 107.097C412.506 107.098 428.068 134.052 415.619 155.614L322.865 316.267L261.391 209.792C240.681 173.922 194.14 167.891 164.736 191.689L143.908 155.614C131.459 134.052 147.02 107.098 171.919 107.097H387.608Z" fill="url(#paint1_linear_918_330)"/>
<defs>
<linearGradient id="paint0_linear_918_330" x1="205.369" y1="209.792" x2="176.807" y2="322.998" gradientUnits="userSpaceOnUse">
<stop stop-color="#FC8CC2"/>
<stop offset="1" stop-color="#E0378A"/>
</linearGradient>
<linearGradient id="paint1_linear_918_330" x1="395.134" y1="31.8961" x2="312.655" y2="234.05" gradientUnits="userSpaceOnUse">
<stop stop-color="#3175FE"/>
<stop offset="1" stop-color="#0B3486"/>
</linearGradient>
</defs>
</svg>
