<svg width="2599" height="486" viewBox="0 0 2599 486" fill="none" xmlns="http://www.w3.org/2000/svg">
<path d="M2257.96 369V276.84H2273.58L2304.04 338.024L2334.5 276.84H2350.12V369H2333.86V313.96L2307.11 369H2300.97L2274.22 313.96V369H2257.96ZM2415.19 369V336.36C2415.19 334.781 2415.1 332.776 2414.93 330.344C2414.76 327.869 2414.23 325.395 2413.33 322.92C2412.44 320.445 2410.97 318.376 2408.92 316.712C2406.91 315.048 2404.05 314.216 2400.34 314.216C2398.85 314.216 2397.25 314.451 2395.54 314.92C2393.83 315.389 2392.23 316.307 2390.74 317.672C2389.25 318.995 2388.01 320.957 2387.03 323.56C2386.09 326.163 2385.62 329.619 2385.62 333.928L2375.64 329.192C2375.64 323.731 2376.75 318.611 2378.97 313.832C2381.18 309.053 2384.51 305.192 2388.95 302.248C2393.43 299.304 2399.06 297.832 2405.85 297.832C2411.26 297.832 2415.68 298.749 2419.09 300.584C2422.51 302.419 2425.15 304.744 2427.03 307.56C2428.95 310.376 2430.31 313.32 2431.12 316.392C2431.94 319.421 2432.43 322.195 2432.6 324.712C2432.77 327.229 2432.85 329.064 2432.85 330.216V369H2415.19ZM2367.96 369V299.88H2383.45V322.792H2385.62V369H2367.96ZM2479.03 401.64C2475.1 401.64 2471.37 401 2467.83 399.72C2464.29 398.483 2461.11 396.733 2458.29 394.472C2455.52 392.253 2453.26 389.651 2451.51 386.664L2467.64 378.856C2468.75 380.904 2470.32 382.461 2472.37 383.528C2474.46 384.595 2476.72 385.128 2479.16 385.128C2481.76 385.128 2484.21 384.68 2486.52 383.784C2488.82 382.931 2490.65 381.629 2492.02 379.88C2493.43 378.173 2494.09 376.04 2494 373.48V353.384H2496.18V299.88H2511.41V373.736C2511.41 375.443 2511.33 377.043 2511.16 378.536C2511.03 380.072 2510.77 381.587 2510.39 383.08C2509.28 387.304 2507.21 390.781 2504.18 393.512C2501.19 396.243 2497.52 398.269 2493.17 399.592C2488.82 400.957 2484.11 401.64 2479.03 401.64ZM2477.49 370.92C2471.13 370.92 2465.57 369.32 2460.79 366.12C2456.01 362.92 2452.28 358.568 2449.59 353.064C2446.94 347.56 2445.62 341.352 2445.62 334.44C2445.62 327.4 2446.96 321.149 2449.65 315.688C2452.38 310.184 2456.2 305.853 2461.11 302.696C2466.01 299.539 2471.77 297.96 2478.39 297.96C2484.96 297.96 2490.48 299.56 2494.96 302.76C2499.44 305.96 2502.84 310.312 2505.14 315.816C2507.44 321.32 2508.6 327.528 2508.6 334.44C2508.6 341.352 2507.42 347.56 2505.08 353.064C2502.77 358.568 2499.32 362.92 2494.71 366.12C2490.1 369.32 2484.36 370.92 2477.49 370.92ZM2480.31 355.432C2484.19 355.432 2487.28 354.557 2489.59 352.808C2491.93 351.059 2493.62 348.605 2494.64 345.448C2495.67 342.291 2496.18 338.621 2496.18 334.44C2496.18 330.259 2495.67 326.589 2494.64 323.432C2493.62 320.275 2491.98 317.821 2489.72 316.072C2487.5 314.323 2484.57 313.448 2480.95 313.448C2477.07 313.448 2473.87 314.408 2471.35 316.328C2468.87 318.205 2467.04 320.744 2465.84 323.944C2464.65 327.101 2464.05 330.6 2464.05 334.44C2464.05 338.323 2464.63 341.864 2465.78 345.064C2466.93 348.221 2468.7 350.739 2471.09 352.616C2473.48 354.493 2476.55 355.432 2480.31 355.432ZM2529.34 369V299.88H2544.7V316.776L2543.03 314.6C2543.93 312.211 2545.12 310.035 2546.62 308.072C2548.11 306.109 2549.94 304.488 2552.12 303.208C2553.78 302.184 2555.6 301.395 2557.56 300.84C2559.52 300.243 2561.55 299.88 2563.64 299.752C2565.73 299.581 2567.82 299.624 2569.91 299.88V316.136C2567.99 315.539 2565.75 315.347 2563.19 315.56C2560.67 315.731 2558.39 316.307 2556.34 317.288C2554.3 318.227 2552.57 319.485 2551.16 321.064C2549.75 322.6 2548.68 324.435 2547.96 326.568C2547.23 328.659 2546.87 331.027 2546.87 333.672V369H2529.34Z" fill="#3175FF"/>
<path fill-rule="evenodd" clip-rule="evenodd" d="M2085.41 83.5112C2112.91 83.5113 2136.86 89.6688 2157.28 101.984C2177.69 114.3 2193.55 131.339 2204.85 153.102C2216.16 174.697 2221.81 199.585 2221.81 227.759C2221.81 256.101 2216.07 281.155 2204.6 302.918C2193.3 324.511 2177.44 341.465 2157.03 353.78C2136.61 365.927 2112.74 372.002 2085.41 372.003C2058.08 372.003 2034.2 365.845 2013.79 353.529C1993.38 341.214 1977.52 324.257 1966.21 302.663C1955.08 280.9 1949.51 255.932 1949.51 227.759C1949.51 199.079 1955.25 173.939 1966.72 152.345C1978.19 130.75 1994.14 113.88 2014.55 101.733C2034.96 89.5863 2058.58 83.5112 2085.41 83.5112ZM2085.41 140.703C2069.04 140.703 2055.55 144.416 2044.92 151.839C2034.46 159.094 2026.7 169.301 2021.64 182.46C2016.58 195.451 2014.04 210.551 2014.04 227.759C2014.05 254.245 2020.03 275.417 2032.01 291.275C2044.16 306.965 2061.96 314.811 2085.41 314.811C2109.7 314.811 2127.76 306.711 2139.56 290.515C2151.37 274.319 2157.28 253.401 2157.28 227.759C2157.28 201.272 2151.29 180.183 2139.31 164.493C2127.33 148.635 2109.36 140.703 2085.41 140.703Z" fill="white"/>
<path fill-rule="evenodd" clip-rule="evenodd" d="M1780.94 83.5112C1809.28 83.5113 1833.33 90.174 1853.07 103.502C1872.97 116.661 1887.73 135.306 1897.35 159.431C1906.69 182.869 1910.38 210.366 1908.42 241.924C1908.32 243.494 1907.01 244.71 1905.44 244.71H1710.42C1712.46 264.335 1718.26 280.111 1727.8 292.036C1739.94 307.22 1757.66 314.811 1780.94 314.811C1795.96 314.811 1808.86 311.521 1819.66 304.941C1829.94 298.614 1838 289.692 1843.83 278.175C1844.5 276.844 1846.02 276.158 1847.45 276.59L1902 293.092C1903.7 293.609 1904.59 295.496 1903.85 297.122C1893.37 320.283 1877.62 338.412 1856.61 351.506C1834.84 365.171 1810.8 372.003 1784.48 372.003C1756.82 372.002 1732.52 366.013 1711.6 354.035C1690.68 342.057 1674.32 325.438 1662.51 304.18C1650.87 282.923 1645.05 258.462 1645.05 230.794C1645.05 200.932 1650.78 175.034 1662.25 153.102C1673.73 131.001 1689.67 113.88 1710.08 101.733C1730.5 89.5863 1754.12 83.5112 1780.94 83.5112ZM1783.47 136.907C1758.5 136.907 1739.94 144.667 1727.8 160.188C1719.99 170.05 1714.7 182.874 1711.91 198.655H1846.32C1844.12 180.863 1839.37 167.114 1832.06 157.407C1821.77 143.742 1805.57 136.907 1783.47 136.907Z" fill="white"/>
<path d="M1397.31 121.427C1404.28 113.244 1412.47 106.175 1421.86 100.216C1439.4 88.9125 1461 83.2604 1486.64 83.2602C1506.88 83.2602 1523.59 86.6326 1536.75 93.381C1549.91 100.129 1560.37 108.735 1568.13 119.195C1575.89 129.654 1581.63 140.787 1585.34 152.596C1589.05 164.406 1591.41 175.627 1592.42 186.256C1593.6 196.715 1594.19 205.236 1594.19 211.815V361.411C1594.19 363.068 1592.85 364.411 1591.19 364.411H1535.44C1533.79 364.411 1532.44 363.068 1532.44 361.411V232.817C1532.44 224.214 1531.86 214.682 1530.67 204.223C1529.49 193.763 1526.71 183.724 1522.32 174.108C1518.1 164.323 1511.69 156.309 1503.09 150.067C1494.65 143.825 1483.18 140.703 1468.67 140.703C1460.91 140.703 1453.24 141.968 1445.65 144.499C1438.05 147.029 1431.14 151.417 1424.89 157.658C1418.82 163.732 1413.93 172.169 1410.22 182.966C1406.51 193.595 1404.65 207.261 1404.65 223.963V361.411C1404.65 363.068 1403.31 364.411 1401.65 364.411H1345.9C1344.24 364.411 1342.9 363.068 1342.9 361.411V3C1342.9 1.34315 1344.24 0 1345.9 0H1394.31C1395.97 0 1397.31 1.34315 1397.31 3V121.427Z" fill="white"/>
<path d="M1171.73 83.5112C1202.77 83.5112 1229.01 91.3568 1250.44 107.047C1271.27 122.02 1285.11 142.333 1291.97 167.983C1292.39 169.555 1291.44 171.157 1289.87 171.583L1234.73 186.519C1233.18 186.938 1231.58 186.066 1231.04 184.558C1226.25 171.181 1218.71 160.694 1208.43 153.102C1197.46 144.836 1184.98 140.703 1170.97 140.703C1155.12 140.703 1142.04 144.498 1131.75 152.09C1121.46 159.513 1113.86 169.807 1108.97 182.966C1104.08 196.125 1101.64 211.057 1101.64 227.759C1101.64 253.739 1107.46 274.743 1119.1 290.77C1130.74 306.797 1148.03 314.811 1170.97 314.811C1187.17 314.811 1199.91 311.097 1209.18 303.675C1218.05 296.708 1224.84 286.844 1229.55 274.082C1230.08 272.642 1231.58 271.79 1233.08 272.125L1289.54 284.751C1291.24 285.132 1292.27 286.882 1291.73 288.541C1283.15 314.88 1268.71 335.278 1248.41 349.734C1227.32 364.58 1201.51 372.002 1170.97 372.003C1142.8 372.003 1118.76 365.759 1098.85 353.275C1078.94 340.622 1063.68 323.414 1053.05 301.651C1042.59 279.888 1037.27 255.258 1037.1 227.759C1037.27 199.753 1042.76 174.951 1053.55 153.357C1064.52 131.594 1080.04 114.555 1100.11 102.239C1120.19 89.7548 1144.06 83.5113 1171.73 83.5112Z" fill="white"/>
<path d="M889.183 286.688L962.708 93.0379C963.15 91.873 964.266 91.1028 965.512 91.1028H1020.06C1022.16 91.1028 1023.61 93.2174 1022.86 95.1829L872.826 483.96C872.379 485.117 871.267 485.88 870.027 485.88H819.179C817.096 485.88 815.647 483.81 816.36 481.853L859.836 362.503L751.035 95.2339C750.232 93.2609 751.683 91.1028 753.813 91.1028H810.82C812.056 91.1028 813.165 91.8608 813.615 93.0123L889.183 286.688Z" fill="white"/>
<path d="M733.44 57.9874C733.44 59.6443 732.097 60.9874 730.44 60.9874H578.021C576.364 60.9874 575.021 62.3306 575.021 63.9874V148.839C575.021 150.496 576.364 151.839 578.021 151.839H700.07C701.727 151.839 703.07 153.182 703.07 154.839V209.572C703.07 211.229 701.727 212.572 700.07 212.572H578.021C576.364 212.572 575.021 213.915 575.021 215.572V361.411C575.021 363.068 573.678 364.411 572.021 364.411H517.034C515.377 364.411 514.034 363.068 514.034 361.411V3C514.034 1.34315 515.377 0 517.034 0H730.44C732.097 0 733.44 1.34315 733.44 3V57.9874Z" fill="white"/>
<path d="M99.5263 146.302C114.746 119.941 152.794 119.941 168.013 146.302L262.183 309.409C277.402 335.769 258.378 368.72 227.94 368.72H39.6C9.16127 368.72 -9.86286 335.769 5.3565 309.409L99.5263 146.302Z" fill="url(#paint0_linear_919_387)"/>
<path d="M356.553 0.988525C386.991 0.98938 406.015 33.9398 390.797 60.3001L277.406 256.696L202.255 126.531C176.937 82.6815 120.041 75.3076 84.0948 104.401L58.6326 60.3001C43.4138 33.9398 62.4379 0.989407 92.8757 0.988525H356.553Z" fill="url(#paint1_linear_919_387)"/>
<defs>
<linearGradient id="paint0_linear_919_387" x1="133.77" y1="126.531" x2="98.8526" y2="264.925" gradientUnits="userSpaceOnUse">
<stop stop-color="#FC8CC2"/>
<stop offset="1" stop-color="#E0378A"/>
</linearGradient>
<linearGradient id="paint1_linear_919_387" x1="365.755" y1="-90.9444" x2="264.925" y2="156.187" gradientUnits="userSpaceOnUse">
<stop stop-color="#3175FE"/>
<stop offset="1" stop-color="#0B3486"/>
</linearGradient>
</defs>
</svg>
