<svg width="2585" height="500" viewBox="0 0 2585 500" fill="none" xmlns="http://www.w3.org/2000/svg">
<path d="M2243.75 382.222V290.062H2259.37L2289.83 351.246L2320.29 290.062H2335.91V382.222H2319.65V327.182L2292.9 382.222H2286.76L2260.01 327.182V382.222H2243.75ZM2400.98 382.222V349.582C2400.98 348.003 2400.89 345.998 2400.72 343.566C2400.55 341.091 2400.02 338.617 2399.12 336.142C2398.23 333.667 2396.76 331.598 2394.71 329.934C2392.7 328.27 2389.84 327.438 2386.13 327.438C2384.64 327.438 2383.04 327.673 2381.33 328.142C2379.62 328.611 2378.02 329.529 2376.53 330.894C2375.04 332.217 2373.8 334.179 2372.82 336.782C2371.88 339.385 2371.41 342.841 2371.41 347.15L2361.43 342.414C2361.43 336.953 2362.54 331.833 2364.76 327.054C2366.97 322.275 2370.3 318.414 2374.74 315.47C2379.22 312.526 2384.85 311.054 2391.64 311.054C2397.05 311.054 2401.47 311.971 2404.88 313.806C2408.3 315.641 2410.94 317.966 2412.82 320.782C2414.74 323.598 2416.1 326.542 2416.92 329.614C2417.73 332.643 2418.22 335.417 2418.39 337.934C2418.56 340.451 2418.64 342.286 2418.64 343.438V382.222H2400.98ZM2353.75 382.222V313.102H2369.24V336.014H2371.41V382.222H2353.75ZM2464.82 414.862C2460.89 414.862 2457.16 414.222 2453.62 412.942C2450.08 411.705 2446.9 409.955 2444.08 407.694C2441.31 405.475 2439.05 402.873 2437.3 399.886L2453.43 392.078C2454.54 394.126 2456.11 395.683 2458.16 396.75C2460.25 397.817 2462.51 398.35 2464.95 398.35C2467.55 398.35 2470 397.902 2472.31 397.006C2474.61 396.153 2476.44 394.851 2477.81 393.102C2479.22 391.395 2479.88 389.262 2479.79 386.702V366.606H2481.97V313.102H2497.2V386.958C2497.2 388.665 2497.12 390.265 2496.95 391.758C2496.82 393.294 2496.56 394.809 2496.18 396.302C2495.07 400.526 2493 404.003 2489.97 406.734C2486.98 409.465 2483.31 411.491 2478.96 412.814C2474.61 414.179 2469.9 414.862 2464.82 414.862ZM2463.28 384.142C2456.92 384.142 2451.36 382.542 2446.58 379.342C2441.8 376.142 2438.07 371.79 2435.38 366.286C2432.73 360.782 2431.41 354.574 2431.41 347.662C2431.41 340.622 2432.75 334.371 2435.44 328.91C2438.17 323.406 2441.99 319.075 2446.9 315.918C2451.8 312.761 2457.56 311.182 2464.18 311.182C2470.75 311.182 2476.27 312.782 2480.75 315.982C2485.23 319.182 2488.63 323.534 2490.93 329.038C2493.23 334.542 2494.39 340.75 2494.39 347.662C2494.39 354.574 2493.21 360.782 2490.87 366.286C2488.56 371.79 2485.11 376.142 2480.5 379.342C2475.89 382.542 2470.15 384.142 2463.28 384.142ZM2466.1 368.654C2469.98 368.654 2473.07 367.779 2475.38 366.03C2477.72 364.281 2479.41 361.827 2480.43 358.67C2481.46 355.513 2481.97 351.843 2481.97 347.662C2481.97 343.481 2481.46 339.811 2480.43 336.654C2479.41 333.497 2477.77 331.043 2475.51 329.294C2473.29 327.545 2470.36 326.67 2466.74 326.67C2462.86 326.67 2459.66 327.63 2457.14 329.55C2454.66 331.427 2452.83 333.966 2451.63 337.166C2450.44 340.323 2449.84 343.822 2449.84 347.662C2449.84 351.545 2450.42 355.086 2451.57 358.286C2452.72 361.443 2454.49 363.961 2456.88 365.838C2459.27 367.715 2462.34 368.654 2466.1 368.654ZM2515.13 382.222V313.102H2530.49V329.998L2528.82 327.822C2529.72 325.433 2530.91 323.257 2532.41 321.294C2533.9 319.331 2535.73 317.71 2537.91 316.43C2539.57 315.406 2541.39 314.617 2543.35 314.062C2545.31 313.465 2547.34 313.102 2549.43 312.974C2551.52 312.803 2553.61 312.846 2555.7 313.102V329.358C2553.78 328.761 2551.54 328.569 2548.98 328.782C2546.46 328.953 2544.18 329.529 2542.13 330.51C2540.09 331.449 2538.36 332.707 2536.95 334.286C2535.54 335.822 2534.47 337.657 2533.75 339.79C2533.02 341.881 2532.66 344.249 2532.66 346.894V382.222H2515.13Z" fill="#3175FF"/>
<path fill-rule="evenodd" clip-rule="evenodd" d="M2071.19 96.7332C2098.69 96.7332 2122.65 102.891 2143.06 115.206C2163.47 127.522 2179.33 144.561 2190.64 166.324C2201.94 187.919 2207.59 212.806 2207.59 240.981C2207.59 269.323 2201.85 294.377 2190.38 316.14C2179.08 337.733 2163.22 354.687 2142.81 367.002C2122.4 379.149 2098.52 385.224 2071.19 385.224C2043.86 385.224 2019.99 379.067 1999.57 366.751C1979.16 354.436 1963.3 337.479 1952 315.885C1940.86 294.122 1935.3 269.154 1935.3 240.981C1935.3 212.301 1941.03 187.161 1952.5 165.567C1963.98 143.972 1979.92 127.102 2000.33 114.955C2020.75 102.808 2044.37 96.7332 2071.19 96.7332ZM2071.19 153.925C2054.83 153.925 2041.33 157.638 2030.7 165.061C2020.24 172.316 2012.48 182.523 2007.42 195.682C2002.36 208.673 1999.83 223.773 1999.83 240.981C1999.83 267.467 2005.82 288.639 2017.8 304.497C2029.94 320.187 2047.74 328.033 2071.19 328.033C2095.49 328.033 2113.54 319.933 2125.35 303.737C2137.16 287.541 2143.06 266.623 2143.06 240.981C2143.06 214.494 2137.07 193.405 2125.09 177.715C2113.12 161.857 2095.15 153.925 2071.19 153.925Z" fill="white"/>
<path fill-rule="evenodd" clip-rule="evenodd" d="M1766.73 96.7332C1795.07 96.7332 1819.11 103.396 1838.85 116.724C1858.76 129.883 1873.52 148.528 1883.13 172.653C1892.47 196.09 1896.16 223.588 1894.2 255.146C1894.1 256.716 1892.8 257.932 1891.22 257.932H1696.2C1698.25 277.557 1704.04 293.333 1713.58 305.258C1725.73 320.442 1743.44 328.033 1766.73 328.033C1781.74 328.033 1794.65 324.743 1805.44 318.163C1815.72 311.836 1823.78 302.914 1829.61 291.397C1830.29 290.066 1831.81 289.38 1833.24 289.812L1887.78 306.314C1889.49 306.83 1890.37 308.718 1889.64 310.344C1879.15 333.505 1863.41 351.634 1842.39 364.728C1820.63 378.393 1796.58 385.224 1770.27 385.224C1742.6 385.224 1718.31 379.235 1697.39 367.257C1676.47 355.279 1660.1 338.66 1648.29 317.402C1636.65 296.145 1630.83 271.683 1630.83 244.016C1630.83 214.154 1636.56 188.256 1648.04 166.324C1659.51 144.223 1675.46 127.102 1695.87 114.955C1716.28 102.808 1739.9 96.7332 1766.73 96.7332ZM1769.26 150.129C1744.29 150.129 1725.73 157.889 1713.58 173.41C1705.78 183.272 1700.49 196.096 1697.7 211.877H1832.11C1829.9 194.085 1825.15 180.336 1817.84 170.629C1807.55 156.964 1791.36 150.129 1769.26 150.129Z" fill="white"/>
<path d="M1383.09 134.648C1390.07 126.466 1398.25 119.397 1407.64 113.438C1425.19 102.134 1446.78 96.4823 1472.42 96.4821C1492.67 96.4821 1509.37 99.8546 1522.53 106.603C1535.69 113.351 1546.15 121.957 1553.91 132.417C1561.67 142.876 1567.41 154.009 1571.12 165.818C1574.83 177.628 1577.2 188.849 1578.21 199.478C1579.39 209.937 1579.98 218.457 1579.98 225.037V374.633C1579.98 376.29 1578.63 377.633 1576.98 377.633H1521.23C1519.57 377.633 1518.23 376.29 1518.23 374.633V246.039C1518.23 237.436 1517.64 227.904 1516.46 217.445C1515.28 206.985 1512.49 196.946 1508.11 187.33C1503.89 177.545 1497.48 169.531 1488.87 163.289C1480.44 157.047 1468.96 153.925 1454.46 153.925C1446.7 153.925 1439.02 155.19 1431.43 157.72C1423.84 160.251 1416.92 164.639 1410.68 170.88C1404.61 176.954 1399.71 185.391 1396 196.188C1392.29 206.817 1390.43 220.483 1390.43 237.185V374.633C1390.43 376.29 1389.09 377.633 1387.43 377.633H1331.69C1330.03 377.633 1328.69 376.29 1328.69 374.633V16.2219C1328.69 14.5651 1330.03 13.2219 1331.69 13.2219H1380.09C1381.75 13.2219 1383.09 14.5651 1383.09 16.2219V134.648Z" fill="white"/>
<path d="M1157.52 96.7332C1188.56 96.7332 1214.79 104.579 1236.22 120.269C1257.05 135.242 1270.9 155.555 1277.75 181.205C1278.18 182.777 1277.23 184.379 1275.66 184.805L1220.51 199.741C1218.96 200.16 1217.37 199.288 1216.83 197.78C1212.03 184.403 1204.49 173.916 1194.21 166.324C1183.25 158.058 1170.76 153.925 1156.76 153.925C1140.9 153.925 1127.82 157.72 1117.53 165.312C1107.24 172.735 1099.65 183.029 1094.76 196.188C1089.86 209.347 1087.42 224.279 1087.42 240.981C1087.42 266.961 1093.24 287.965 1104.88 303.992C1116.52 320.018 1133.82 328.033 1156.76 328.033C1172.95 328.033 1185.69 324.319 1194.97 316.896C1203.83 309.93 1210.62 300.066 1215.33 287.304C1215.86 285.864 1217.37 285.012 1218.86 285.347L1275.33 297.973C1277.03 298.354 1278.05 300.104 1277.51 301.763C1268.94 328.102 1254.5 348.5 1234.2 362.956C1213.11 377.802 1187.29 385.224 1156.76 385.224C1128.58 385.224 1104.54 378.981 1084.64 366.497C1064.73 353.843 1049.46 336.636 1038.83 314.873C1028.37 293.11 1023.06 268.479 1022.89 240.981C1023.06 212.975 1028.54 188.173 1039.34 166.579C1050.3 144.816 1065.82 127.777 1085.9 115.461C1105.97 102.977 1129.85 96.7332 1157.52 96.7332Z" fill="white"/>
<path d="M874.967 299.91L948.492 106.26C948.934 105.095 950.05 104.325 951.296 104.325H1005.84C1007.95 104.325 1009.4 106.439 1008.64 108.405L858.61 497.182C858.163 498.339 857.051 499.102 855.811 499.102H804.963C802.88 499.102 801.431 497.032 802.144 495.075L845.62 375.725L736.819 108.456C736.016 106.483 737.467 104.325 739.598 104.325H796.604C797.84 104.325 798.95 105.083 799.399 106.234L874.967 299.91Z" fill="white"/>
<path d="M719.224 71.2094C719.224 72.8662 717.881 74.2094 716.224 74.2094H563.805C562.148 74.2094 560.805 75.5525 560.805 77.2094V162.061C560.805 163.718 562.148 165.061 563.805 165.061H685.854C687.511 165.061 688.854 166.404 688.854 168.061V222.794C688.854 224.451 687.511 225.794 685.854 225.794H563.805C562.148 225.794 560.805 227.137 560.805 228.794V374.633C560.805 376.29 559.462 377.633 557.805 377.633H502.818C501.161 377.633 499.818 376.29 499.818 374.633V16.2219C499.818 14.5651 501.161 13.2219 502.818 13.2219H716.224C717.881 13.2219 719.224 14.5651 719.224 16.2219V71.2094Z" fill="white"/>
<path d="M222.418 99.5263C248.779 114.746 248.779 152.794 222.418 168.013L59.3115 262.183C32.9508 277.402 2.74415e-05 258.378 2.8772e-05 227.94L3.70046e-05 39.6C3.83351e-05 9.16126 32.9509 -9.86287 59.3116 5.35649L222.418 99.5263Z" fill="url(#paint0_linear_919_387)"/>
<path d="M367.732 356.553C367.731 386.991 334.781 406.015 308.42 390.796L112.024 277.405L242.189 202.254C286.039 176.937 293.413 120.04 264.319 84.0946L308.42 58.6323C334.781 43.4135 367.731 62.4376 367.732 92.8755L367.732 356.553Z" fill="url(#paint1_linear_919_387)"/>
<defs>
<linearGradient id="paint0_linear_919_387" x1="242.189" y1="133.77" x2="103.795" y2="98.8526" gradientUnits="userSpaceOnUse">
<stop stop-color="#FC8CC2"/>
<stop offset="1" stop-color="#E0378A"/>
</linearGradient>
<linearGradient id="paint1_linear_919_387" x1="459.665" y1="365.755" x2="212.533" y2="264.925" gradientUnits="userSpaceOnUse">
<stop stop-color="#3175FE"/>
<stop offset="1" stop-color="#0B3486"/>
</linearGradient>
</defs>
</svg>
