<svg width="2585" height="500" viewBox="0 0 2585 500" fill="none" xmlns="http://www.w3.org/2000/svg">
<path d="M2243.62 382.222L2243.75 290.062H2261.41V346.382L2284.84 313.102H2306.34L2281.38 347.662L2308.01 382.222H2285.35L2261.41 348.942V382.222H2243.62ZM2340.13 384.142C2331.43 384.142 2324.39 382.179 2319.01 378.254C2313.68 374.286 2310.44 368.697 2309.28 361.486L2327.08 358.798C2327.8 362.041 2329.4 364.579 2331.88 366.414C2334.39 368.249 2337.57 369.166 2341.41 369.166C2344.57 369.166 2347 368.569 2348.71 367.374C2350.42 366.137 2351.27 364.43 2351.27 362.254C2351.27 360.889 2350.93 359.801 2350.24 358.99C2349.56 358.137 2348.03 357.305 2345.64 356.494C2343.29 355.683 2339.62 354.617 2334.63 353.294C2329 351.843 2324.5 350.222 2321.12 348.43C2317.75 346.638 2315.32 344.505 2313.83 342.03C2312.34 339.513 2311.59 336.483 2311.59 332.942C2311.59 328.505 2312.72 324.665 2314.98 321.422C2317.24 318.137 2320.42 315.619 2324.52 313.87C2328.66 312.078 2333.52 311.182 2339.11 311.182C2344.53 311.182 2349.33 312.014 2353.51 313.678C2357.69 315.342 2361.06 317.71 2363.62 320.782C2366.22 323.854 2367.82 327.481 2368.42 331.662L2350.63 334.862C2350.33 332.302 2349.22 330.275 2347.3 328.782C2345.38 327.289 2342.78 326.414 2339.49 326.158C2336.29 325.945 2333.71 326.371 2331.75 327.438C2329.83 328.505 2328.87 330.041 2328.87 332.046C2328.87 333.241 2329.27 334.243 2330.08 335.054C2330.94 335.865 2332.67 336.697 2335.27 337.55C2337.91 338.403 2341.92 339.513 2347.3 340.878C2352.55 342.243 2356.75 343.843 2359.91 345.678C2363.11 347.47 2365.43 349.646 2366.88 352.206C2368.34 354.723 2369.06 357.774 2369.06 361.358C2369.06 368.441 2366.5 374.009 2361.38 378.062C2356.26 382.115 2349.18 384.142 2340.13 384.142ZM2383 382.222L2383.12 290.062H2400.79V346.382L2424.21 313.102H2445.72L2420.76 347.662L2447.38 382.222H2424.72L2400.79 348.942V382.222H2383Z" fill="#3175FF"/>
<path fill-rule="evenodd" clip-rule="evenodd" d="M2071.19 96.7331C2098.69 96.7332 2122.65 102.891 2143.06 115.206C2163.47 127.522 2179.33 144.561 2190.64 166.324C2201.94 187.918 2207.59 212.806 2207.59 240.981C2207.59 269.323 2201.85 294.377 2190.38 316.14C2179.08 337.733 2163.22 354.687 2142.81 367.002C2122.4 379.149 2098.52 385.224 2071.19 385.224C2043.86 385.224 2019.99 379.067 1999.57 366.751C1979.16 354.436 1963.3 337.479 1952 315.885C1940.86 294.122 1935.3 269.154 1935.3 240.981C1935.3 212.301 1941.03 187.161 1952.5 165.567C1963.98 143.972 1979.92 127.102 2000.33 114.955C2020.75 102.808 2044.37 96.7331 2071.19 96.7331ZM2071.19 153.925C2054.83 153.925 2041.33 157.638 2030.7 165.061C2020.24 172.316 2012.48 182.523 2007.42 195.682C2002.36 208.673 1999.83 223.773 1999.83 240.981C1999.83 267.467 2005.82 288.639 2017.8 304.497C2029.94 320.187 2047.74 328.033 2071.19 328.033C2095.49 328.033 2113.54 319.933 2125.35 303.737C2137.16 287.541 2143.06 266.622 2143.06 240.981C2143.06 214.494 2137.07 193.405 2125.09 177.715C2113.12 161.857 2095.15 153.925 2071.19 153.925Z" fill="black"/>
<path fill-rule="evenodd" clip-rule="evenodd" d="M1766.73 96.7331C1795.07 96.7332 1819.11 103.396 1838.85 116.724C1858.76 129.883 1873.52 148.528 1883.13 172.653C1892.47 196.09 1896.16 223.588 1894.2 255.146C1894.1 256.716 1892.8 257.932 1891.22 257.932H1696.2C1698.25 277.557 1704.04 293.333 1713.58 305.258C1725.73 320.442 1743.44 328.033 1766.73 328.033C1781.74 328.033 1794.65 324.742 1805.44 318.163C1815.72 311.836 1823.78 302.913 1829.61 291.397C1830.29 290.066 1831.81 289.38 1833.24 289.812L1887.78 306.314C1889.49 306.83 1890.37 308.718 1889.64 310.344C1879.15 333.505 1863.41 351.634 1842.39 364.728C1820.63 378.393 1796.58 385.224 1770.27 385.224C1742.6 385.224 1718.31 379.235 1697.39 367.257C1676.47 355.279 1660.1 338.66 1648.29 317.402C1636.65 296.145 1630.83 271.683 1630.83 244.016C1630.83 214.154 1636.56 188.256 1648.04 166.324C1659.51 144.223 1675.46 127.102 1695.87 114.955C1716.28 102.808 1739.9 96.7331 1766.73 96.7331ZM1769.26 150.129C1744.29 150.129 1725.73 157.889 1713.58 173.41C1705.78 183.272 1700.49 196.096 1697.7 211.877H1832.11C1829.9 194.085 1825.15 180.336 1817.84 170.629C1807.55 156.964 1791.36 150.129 1769.26 150.129Z" fill="black"/>
<path d="M1383.09 134.648C1390.07 126.466 1398.25 119.397 1407.64 113.438C1425.19 102.134 1446.78 96.4823 1472.42 96.4821C1492.67 96.4821 1509.37 99.8546 1522.53 106.603C1535.69 113.351 1546.15 121.957 1553.91 132.417C1561.67 142.876 1567.41 154.009 1571.12 165.818C1574.83 177.628 1577.19 188.849 1578.21 199.478C1579.39 209.937 1579.98 218.457 1579.98 225.037V374.633C1579.98 376.29 1578.63 377.633 1576.98 377.633H1521.23C1519.57 377.633 1518.23 376.29 1518.23 374.633V246.039C1518.23 237.436 1517.64 227.904 1516.46 217.445C1515.28 206.985 1512.49 196.946 1508.11 187.33C1503.89 177.545 1497.48 169.531 1488.87 163.289C1480.44 157.047 1468.96 153.925 1454.46 153.925C1446.7 153.925 1439.02 155.19 1431.43 157.72C1423.84 160.251 1416.92 164.639 1410.68 170.88C1404.61 176.954 1399.71 185.391 1396 196.188C1392.29 206.817 1390.43 220.483 1390.43 237.185V374.633C1390.43 376.29 1389.09 377.633 1387.43 377.633H1331.69C1330.03 377.633 1328.69 376.29 1328.69 374.633V16.2219C1328.69 14.5651 1330.03 13.2219 1331.69 13.2219H1380.09C1381.75 13.2219 1383.09 14.5651 1383.09 16.2219V134.648Z" fill="black"/>
<path d="M1157.52 96.7331C1188.56 96.7331 1214.79 104.579 1236.22 120.269C1257.05 135.242 1270.9 155.555 1277.75 181.205C1278.18 182.777 1277.23 184.379 1275.66 184.805L1220.51 199.741C1218.96 200.16 1217.37 199.288 1216.83 197.779C1212.03 184.403 1204.49 173.916 1194.21 166.324C1183.25 158.058 1170.76 153.925 1156.76 153.925C1140.9 153.925 1127.82 157.72 1117.53 165.312C1107.24 172.735 1099.65 183.029 1094.76 196.188C1089.86 209.347 1087.42 224.279 1087.42 240.981C1087.42 266.961 1093.24 287.965 1104.88 303.991C1116.52 320.018 1133.82 328.033 1156.76 328.033C1172.95 328.032 1185.69 324.319 1194.97 316.896C1203.83 309.93 1210.62 300.066 1215.33 287.304C1215.86 285.864 1217.37 285.012 1218.86 285.347L1275.33 297.973C1277.03 298.354 1278.05 300.104 1277.51 301.763C1268.94 328.102 1254.5 348.5 1234.2 362.956C1213.11 377.802 1187.29 385.224 1156.76 385.224C1128.58 385.224 1104.54 378.981 1084.64 366.496C1064.73 353.843 1049.46 336.636 1038.83 314.873C1028.37 293.11 1023.06 268.479 1022.89 240.981C1023.06 212.975 1028.54 188.173 1039.34 166.579C1050.3 144.816 1065.82 127.777 1085.9 115.461C1105.97 102.977 1129.85 96.7332 1157.52 96.7331Z" fill="black"/>
<path d="M874.967 299.91L948.492 106.26C948.934 105.095 950.05 104.325 951.296 104.325H1005.84C1007.95 104.325 1009.4 106.439 1008.64 108.405L858.61 497.182C858.163 498.339 857.051 499.102 855.811 499.102H804.963C802.88 499.102 801.431 497.032 802.144 495.075L845.62 375.725L736.819 108.456C736.016 106.483 737.467 104.325 739.598 104.325H796.604C797.84 104.325 798.95 105.083 799.399 106.234L874.967 299.91Z" fill="black"/>
<path d="M719.224 71.2094C719.224 72.8662 717.881 74.2094 716.224 74.2094H563.805C562.148 74.2094 560.805 75.5525 560.805 77.2094V162.061C560.805 163.718 562.148 165.061 563.805 165.061H685.854C687.511 165.061 688.854 166.404 688.854 168.061V222.794C688.854 224.451 687.511 225.794 685.854 225.794H563.805C562.148 225.794 560.805 227.137 560.805 228.794V374.633C560.805 376.29 559.462 377.633 557.805 377.633H502.818C501.161 377.633 499.818 376.29 499.818 374.633V16.2219C499.818 14.5651 501.161 13.2219 502.818 13.2219H716.224C717.881 13.2219 719.224 14.5651 719.224 16.2219V71.2094Z" fill="black"/>
<path d="M222.418 99.5264C248.779 114.746 248.779 152.794 222.418 168.013L59.3115 262.183C32.9508 277.403 2.74415e-05 258.378 2.8772e-05 227.94L3.70046e-05 39.6C3.83351e-05 9.16132 32.9509 -9.86281 59.3116 5.35655L222.418 99.5264Z" fill="url(#paint0_linear_918_384)"/>
<path d="M367.732 356.553C367.731 386.991 334.781 406.015 308.42 390.796L112.024 277.406L242.189 202.254C286.039 176.937 293.413 120.041 264.319 84.0946L308.42 58.6324C334.781 43.4136 367.731 62.4377 367.732 92.8755L367.732 356.553Z" fill="url(#paint1_linear_918_384)"/>
<defs>
<linearGradient id="paint0_linear_918_384" x1="242.189" y1="133.77" x2="103.795" y2="98.8527" gradientUnits="userSpaceOnUse">
<stop stop-color="#FC8CC2"/>
<stop offset="1" stop-color="#E0378A"/>
</linearGradient>
<linearGradient id="paint1_linear_918_384" x1="459.665" y1="365.755" x2="212.533" y2="264.925" gradientUnits="userSpaceOnUse">
<stop stop-color="#3175FE"/>
<stop offset="1" stop-color="#0B3486"/>
</linearGradient>
</defs>
</svg>
