<svg width="2222" height="486" viewBox="0 0 2222 486" fill="none" xmlns="http://www.w3.org/2000/svg">
<path fill-rule="evenodd" clip-rule="evenodd" d="M2085.41 83.5112C2112.91 83.5113 2136.86 89.6688 2157.28 101.984C2177.69 114.3 2193.55 131.339 2204.85 153.102C2216.16 174.697 2221.81 199.584 2221.81 227.759C2221.81 256.101 2216.07 281.155 2204.6 302.918C2193.3 324.511 2177.44 341.465 2157.03 353.78C2136.61 365.927 2112.74 372.002 2085.41 372.002C2058.08 372.002 2034.2 365.845 2013.79 353.529C1993.38 341.214 1977.52 324.257 1966.21 302.663C1955.08 280.9 1949.51 255.932 1949.51 227.759C1949.51 199.079 1955.25 173.939 1966.72 152.345C1978.19 130.75 1994.14 113.88 2014.55 101.733C2034.96 89.5863 2058.58 83.5112 2085.41 83.5112ZM2085.41 140.703C2069.04 140.703 2055.55 144.416 2044.92 151.839C2034.46 159.094 2026.7 169.301 2021.64 182.46C2016.58 195.451 2014.04 210.551 2014.04 227.759C2014.05 254.245 2020.03 275.417 2032.01 291.275C2044.16 306.965 2061.96 314.811 2085.41 314.811C2109.7 314.811 2127.76 306.711 2139.56 290.515C2151.37 274.319 2157.28 253.401 2157.28 227.759C2157.28 201.272 2151.29 180.183 2139.31 164.493C2127.33 148.635 2109.36 140.703 2085.41 140.703Z" fill="black"/>
<path fill-rule="evenodd" clip-rule="evenodd" d="M1780.94 83.5112C1809.28 83.5113 1833.33 90.1739 1853.07 103.502C1872.97 116.661 1887.73 135.306 1897.35 159.431C1906.69 182.869 1910.38 210.366 1908.42 241.924C1908.32 243.494 1907.01 244.71 1905.44 244.71H1710.42C1712.46 264.335 1718.26 280.111 1727.8 292.036C1739.94 307.22 1757.66 314.811 1780.94 314.811C1795.96 314.811 1808.86 311.521 1819.66 304.941C1829.94 298.614 1838 289.692 1843.83 278.175C1844.5 276.844 1846.02 276.158 1847.45 276.59L1902 293.092C1903.7 293.608 1904.59 295.496 1903.85 297.122C1893.37 320.283 1877.62 338.412 1856.61 351.506C1834.84 365.171 1810.8 372.002 1784.48 372.002C1756.82 372.002 1732.52 366.013 1711.6 354.035C1690.68 342.057 1674.32 325.438 1662.51 304.18C1650.87 282.923 1645.05 258.461 1645.05 230.794C1645.05 200.932 1650.78 175.034 1662.25 153.102C1673.73 131.001 1689.67 113.88 1710.08 101.733C1730.5 89.5863 1754.12 83.5112 1780.94 83.5112ZM1783.47 136.907C1758.5 136.907 1739.94 144.667 1727.8 160.188C1719.99 170.05 1714.7 182.874 1711.91 198.655H1846.32C1844.12 180.863 1839.37 167.114 1832.06 157.407C1821.77 143.742 1805.57 136.907 1783.47 136.907Z" fill="black"/>
<path d="M1397.31 121.427C1404.28 113.244 1412.47 106.175 1421.86 100.216C1439.4 88.9125 1461 83.2604 1486.64 83.2602C1506.88 83.2602 1523.59 86.6326 1536.75 93.381C1549.91 100.129 1560.37 108.735 1568.13 119.195C1575.89 129.654 1581.63 140.787 1585.34 152.596C1589.05 164.406 1591.41 175.627 1592.42 186.256C1593.6 196.715 1594.19 205.236 1594.19 211.815V361.411C1594.19 363.068 1592.85 364.411 1591.19 364.411H1535.44C1533.79 364.411 1532.44 363.068 1532.44 361.411V232.817C1532.44 224.214 1531.86 214.682 1530.67 204.223C1529.49 193.763 1526.71 183.724 1522.32 174.108C1518.1 164.323 1511.69 156.309 1503.09 150.067C1494.65 143.825 1483.18 140.703 1468.67 140.703C1460.91 140.703 1453.24 141.968 1445.65 144.499C1438.05 147.029 1431.14 151.417 1424.89 157.658C1418.82 163.732 1413.93 172.169 1410.22 182.966C1406.51 193.595 1404.65 207.261 1404.65 223.963V361.411C1404.65 363.068 1403.31 364.411 1401.65 364.411H1345.9C1344.24 364.411 1342.9 363.068 1342.9 361.411V3C1342.9 1.34315 1344.24 0 1345.9 0H1394.31C1395.97 0 1397.31 1.34315 1397.31 3V121.427Z" fill="black"/>
<path d="M1171.73 83.5112C1202.77 83.5112 1229.01 91.3567 1250.44 107.047C1271.27 122.02 1285.11 142.333 1291.97 167.983C1292.39 169.555 1291.44 171.157 1289.87 171.583L1234.73 186.519C1233.18 186.938 1231.58 186.066 1231.04 184.558C1226.25 171.181 1218.71 160.694 1208.43 153.102C1197.46 144.836 1184.98 140.703 1170.97 140.703C1155.12 140.703 1142.04 144.498 1131.75 152.09C1121.46 159.513 1113.86 169.807 1108.97 182.966C1104.08 196.125 1101.64 211.057 1101.64 227.759C1101.64 253.739 1107.46 274.743 1119.1 290.77C1130.74 306.796 1148.03 314.811 1170.97 314.811C1187.17 314.811 1199.91 311.097 1209.18 303.674C1218.05 296.708 1224.84 286.844 1229.55 274.082C1230.08 272.642 1231.58 271.79 1233.08 272.125L1289.54 284.751C1291.24 285.132 1292.27 286.882 1291.73 288.541C1283.15 314.88 1268.71 335.278 1248.41 349.734C1227.32 364.58 1201.51 372.002 1170.97 372.002C1142.8 372.002 1118.76 365.759 1098.85 353.275C1078.94 340.621 1063.68 323.414 1053.05 301.651C1042.59 279.888 1037.27 255.257 1037.1 227.759C1037.27 199.753 1042.76 174.951 1053.55 153.357C1064.52 131.594 1080.04 114.555 1100.11 102.239C1120.19 89.7548 1144.06 83.5113 1171.73 83.5112Z" fill="black"/>
<path d="M889.183 286.688L962.708 93.0379C963.15 91.873 964.266 91.1027 965.512 91.1027H1020.06C1022.16 91.1027 1023.61 93.2173 1022.86 95.1828L872.826 483.96C872.379 485.117 871.267 485.88 870.027 485.88H819.179C817.096 485.88 815.647 483.81 816.36 481.853L859.836 362.503L751.035 95.2338C750.232 93.2608 751.683 91.1027 753.813 91.1027H810.82C812.056 91.1027 813.165 91.8608 813.615 93.0123L889.183 286.688Z" fill="black"/>
<path d="M733.44 57.9874C733.44 59.6443 732.097 60.9874 730.44 60.9874H578.021C576.364 60.9874 575.021 62.3306 575.021 63.9874V148.839C575.021 150.496 576.364 151.839 578.021 151.839H700.07C701.727 151.839 703.07 153.182 703.07 154.839V209.572C703.07 211.229 701.727 212.572 700.07 212.572H578.021C576.364 212.572 575.021 213.915 575.021 215.572V361.411C575.021 363.068 573.678 364.411 572.021 364.411H517.034C515.377 364.411 514.034 363.068 514.034 361.411V3C514.034 1.34315 515.377 0 517.034 0H730.44C732.097 0 733.44 1.34315 733.44 3V57.9874Z" fill="black"/>
<path d="M99.5263 146.302C114.746 119.941 152.794 119.941 168.013 146.302L262.183 309.409C277.402 335.769 258.378 368.72 227.94 368.72H39.6C9.16127 368.72 -9.86286 335.769 5.3565 309.409L99.5263 146.302Z" fill="url(#paint0_linear_918_345)"/>
<path d="M356.553 0.988525C386.991 0.98938 406.015 33.9398 390.797 60.3001L277.406 256.696L202.255 126.531C176.937 82.6815 120.041 75.3076 84.0948 104.401L58.6326 60.3001C43.4138 33.9398 62.4379 0.989407 92.8757 0.988525H356.553Z" fill="url(#paint1_linear_918_345)"/>
<defs>
<linearGradient id="paint0_linear_918_345" x1="133.77" y1="126.531" x2="98.8526" y2="264.925" gradientUnits="userSpaceOnUse">
<stop stop-color="#FC8CC2"/>
<stop offset="1" stop-color="#E0378A"/>
</linearGradient>
<linearGradient id="paint1_linear_918_345" x1="365.755" y1="-90.9444" x2="264.925" y2="156.187" gradientUnits="userSpaceOnUse">
<stop stop-color="#3175FE"/>
<stop offset="1" stop-color="#0B3486"/>
</linearGradient>
</defs>
</svg>
