<svg width="2208" height="500" viewBox="0 0 2208 500" fill="none" xmlns="http://www.w3.org/2000/svg">
<path fill-rule="evenodd" clip-rule="evenodd" d="M2071.2 96.7332C2098.7 96.7332 2122.65 102.891 2143.07 115.206C2163.48 127.522 2179.34 144.561 2190.64 166.324C2201.95 187.919 2207.6 212.806 2207.6 240.981C2207.6 269.323 2201.86 294.377 2190.39 316.14C2179.09 337.733 2163.23 354.687 2142.82 367.002C2122.4 379.149 2098.53 385.224 2071.2 385.224C2043.87 385.224 2019.99 379.067 1999.58 366.751C1979.17 354.436 1963.31 337.479 1952 315.885C1940.87 294.122 1935.3 269.154 1935.3 240.981C1935.3 212.301 1941.04 187.161 1952.51 165.567C1963.98 143.972 1979.93 127.102 2000.34 114.955C2020.75 102.808 2044.37 96.7332 2071.2 96.7332ZM2071.2 153.925C2054.83 153.925 2041.34 157.638 2030.71 165.061C2020.25 172.316 2012.49 182.523 2007.43 195.682C2002.37 208.673 1999.83 223.773 1999.83 240.981C1999.83 267.467 2005.82 288.639 2017.8 304.497C2029.95 320.187 2047.75 328.033 2071.2 328.033C2095.49 328.033 2113.54 319.933 2125.35 303.737C2137.16 287.541 2143.07 266.623 2143.07 240.981C2143.07 214.494 2137.08 193.405 2125.1 177.715C2113.12 161.857 2095.15 153.925 2071.2 153.925Z" fill="white"/>
<path fill-rule="evenodd" clip-rule="evenodd" d="M1766.73 96.7332C1795.07 96.7332 1819.12 103.396 1838.86 116.724C1858.76 129.883 1873.52 148.528 1883.14 172.653C1892.48 196.09 1896.17 223.588 1894.21 255.146C1894.11 256.716 1892.8 257.932 1891.23 257.932H1696.21C1698.25 277.557 1704.05 293.333 1713.59 305.258C1725.73 320.442 1743.45 328.033 1766.73 328.033C1781.75 328.033 1794.65 324.743 1805.45 318.163C1815.73 311.836 1823.79 302.914 1829.62 291.397C1830.29 290.066 1831.81 289.38 1833.24 289.812L1887.79 306.314C1889.49 306.83 1890.38 308.718 1889.64 310.344C1879.16 333.505 1863.41 351.634 1842.4 364.728C1820.63 378.393 1796.59 385.224 1770.27 385.224C1742.61 385.224 1718.31 379.235 1697.39 367.257C1676.47 355.279 1660.11 338.66 1648.3 317.402C1636.66 296.145 1630.84 271.683 1630.84 244.016C1630.84 214.154 1636.57 188.256 1648.04 166.324C1659.52 144.223 1675.46 127.102 1695.87 114.955C1716.29 102.808 1739.91 96.7332 1766.73 96.7332ZM1769.26 150.129C1744.29 150.129 1725.73 157.889 1713.59 173.41C1705.78 183.272 1700.49 196.096 1697.7 211.877H1832.11C1829.91 194.085 1825.16 180.336 1817.85 170.629C1807.56 156.964 1791.36 150.129 1769.26 150.129Z" fill="white"/>
<path d="M1383.1 134.648C1390.07 126.466 1398.26 119.397 1407.65 113.438C1425.19 102.134 1446.79 96.4823 1472.43 96.4821C1492.67 96.4821 1509.38 99.8546 1522.54 106.603C1535.7 113.351 1546.16 121.957 1553.92 132.417C1561.68 142.876 1567.42 154.009 1571.13 165.818C1574.84 177.628 1577.2 188.849 1578.21 199.478C1579.39 209.937 1579.98 218.457 1579.98 225.037V374.633C1579.98 376.29 1578.64 377.633 1576.98 377.633H1521.23C1519.58 377.633 1518.23 376.29 1518.23 374.633V246.039C1518.23 237.436 1517.65 227.904 1516.46 217.445C1515.28 206.985 1512.5 196.946 1508.11 187.33C1503.89 177.545 1497.48 169.531 1488.88 163.289C1480.44 157.047 1468.97 153.925 1454.46 153.925C1446.7 153.925 1439.03 155.19 1431.44 157.72C1423.84 160.251 1416.93 164.639 1410.68 170.88C1404.61 176.954 1399.72 185.391 1396.01 196.188C1392.3 206.817 1390.44 220.483 1390.44 237.185V374.633C1390.44 376.29 1389.1 377.633 1387.44 377.633H1331.69C1330.03 377.633 1328.69 376.29 1328.69 374.633V16.2219C1328.69 14.5651 1330.03 13.2219 1331.69 13.2219H1380.1C1381.76 13.2219 1383.1 14.5651 1383.1 16.2219V134.648Z" fill="white"/>
<path d="M1157.52 96.7332C1188.56 96.7332 1214.8 104.579 1236.23 120.269C1257.06 135.242 1270.9 155.555 1277.76 181.205C1278.18 182.777 1277.23 184.379 1275.66 184.805L1220.52 199.741C1218.97 200.16 1217.37 199.288 1216.83 197.78C1212.04 184.403 1204.5 173.916 1194.22 166.324C1183.25 158.058 1170.77 153.925 1156.76 153.925C1140.91 153.925 1127.83 157.72 1117.54 165.312C1107.25 172.735 1099.65 183.029 1094.76 196.188C1089.87 209.347 1087.43 224.279 1087.43 240.981C1087.43 266.961 1093.25 287.965 1104.89 303.992C1116.53 320.018 1133.82 328.033 1156.76 328.033C1172.96 328.033 1185.7 324.319 1194.97 316.896C1203.84 309.93 1210.63 300.066 1215.34 287.304C1215.87 285.864 1217.37 285.012 1218.87 285.347L1275.33 297.973C1277.03 298.354 1278.06 300.104 1277.52 301.763C1268.94 328.102 1254.5 348.5 1234.2 362.956C1213.11 377.802 1187.3 385.224 1156.76 385.224C1128.59 385.224 1104.55 378.981 1084.64 366.497C1064.73 353.843 1049.47 336.636 1038.84 314.873C1028.38 293.11 1023.06 268.479 1022.89 240.981C1023.06 212.975 1028.55 188.173 1039.34 166.579C1050.31 144.816 1065.83 127.777 1085.9 115.461C1105.98 102.977 1129.85 96.7332 1157.52 96.7332Z" fill="white"/>
<path d="M874.973 299.91L948.498 106.26C948.94 105.095 950.056 104.325 951.302 104.325H1005.85C1007.95 104.325 1009.4 106.439 1008.65 108.405L858.616 497.182C858.169 498.339 857.057 499.102 855.817 499.102H804.969C802.886 499.102 801.437 497.032 802.15 495.075L845.626 375.725L736.825 108.456C736.022 106.483 737.473 104.325 739.603 104.325H796.61C797.846 104.325 798.956 105.083 799.405 106.234L874.973 299.91Z" fill="white"/>
<path d="M719.23 71.2094C719.23 72.8662 717.887 74.2094 716.23 74.2094H563.811C562.154 74.2094 560.811 75.5525 560.811 77.2094V162.061C560.811 163.718 562.154 165.061 563.811 165.061H685.86C687.517 165.061 688.86 166.404 688.86 168.061V222.794C688.86 224.451 687.517 225.794 685.86 225.794H563.811C562.154 225.794 560.811 227.137 560.811 228.794V374.633C560.811 376.29 559.468 377.633 557.811 377.633H502.824C501.167 377.633 499.824 376.29 499.824 374.633V16.2219C499.824 14.5651 501.167 13.2219 502.824 13.2219H716.23C717.887 13.2219 719.23 14.5651 719.23 16.2219V71.2094Z" fill="white"/>
<path d="M222.418 99.5263C248.779 114.746 248.779 152.794 222.418 168.013L59.3115 262.183C32.9508 277.402 2.74415e-05 258.378 2.8772e-05 227.94L3.70046e-05 39.6C3.83351e-05 9.16126 32.9509 -9.86287 59.3116 5.35649L222.418 99.5263Z" fill="url(#paint0_linear_918_301)"/>
<path d="M367.732 356.553C367.731 386.991 334.781 406.015 308.42 390.796L112.024 277.405L242.189 202.254C286.039 176.937 293.413 120.04 264.319 84.0946L308.42 58.6323C334.781 43.4135 367.731 62.4376 367.732 92.8755L367.732 356.553Z" fill="url(#paint1_linear_918_301)"/>
<defs>
<linearGradient id="paint0_linear_918_301" x1="242.189" y1="133.77" x2="103.795" y2="98.8526" gradientUnits="userSpaceOnUse">
<stop stop-color="#FC8CC2"/>
<stop offset="1" stop-color="#E0378A"/>
</linearGradient>
<linearGradient id="paint1_linear_918_301" x1="459.665" y1="365.755" x2="212.533" y2="264.925" gradientUnits="userSpaceOnUse">
<stop stop-color="#3175FE"/>
<stop offset="1" stop-color="#0B3486"/>
</linearGradient>
</defs>
</svg>
