<svg width="2050" height="542" viewBox="0 0 2050 542" fill="none" xmlns="http://www.w3.org/2000/svg">
<path d="M65.5683 58.7263C65.5683 36.3692 83.6923 18.2451 106.05 18.2451H332.973C355.33 18.2451 373.454 36.3692 373.454 58.7263V285.65C373.454 308.007 355.33 326.131 332.973 326.131H106.05C83.6923 326.131 65.5683 308.007 65.5683 285.65V58.7263Z" fill="url(#paint0_linear_894_37)"/>
<path d="M204.015 233.195V111.181H235.007V233.195H204.015ZM158.219 187.612V156.764H280.803V187.612H158.219Z" fill="white"/>
<path d="M112.256 48.5095C118.043 26.9141 140.24 14.0985 161.836 19.8849L381.026 78.617C402.622 84.4035 415.438 106.601 409.651 128.196L350.919 347.387C345.133 368.983 322.935 381.798 301.34 376.012L82.1488 317.28C60.5535 311.493 47.7378 289.296 53.5243 267.7L112.256 48.5095Z" fill="url(#paint1_linear_894_37)"/>
<path d="M200.83 252.866L232.409 135.009L262.346 143.031L230.766 260.887L200.83 252.866ZM168.392 196.983L176.376 167.186L294.783 198.913L286.799 228.71L168.392 196.983Z" fill="white"/>
<path d="M39.5554 128.196C33.769 106.601 46.5846 84.4035 68.18 78.617L287.371 19.8849C308.966 14.0985 331.164 26.9141 336.95 48.5095L395.682 267.7C401.469 289.296 388.653 311.493 367.058 317.28L147.867 376.012C126.271 381.798 104.074 368.983 98.2875 347.387L39.5554 128.196Z" fill="url(#paint2_linear_894_37)"/>
<path d="M218.44 260.887L186.861 143.031L216.797 135.009L248.377 252.866L218.44 260.887ZM162.407 228.71L154.423 198.913L272.83 167.186L280.814 196.983L162.407 228.71Z" fill="#404040" fill-opacity="0.52"/>
<path d="M40.1962 246.879H411.084V399.396C411.084 421.753 392.96 439.877 370.603 439.877H80.6775C58.3203 439.877 40.1962 421.753 40.1962 399.396V246.879Z" fill="url(#paint3_linear_894_37)"/>
<path d="M266.371 281.056C277.246 287.335 286.292 296.346 292.615 307.195C298.937 318.045 302.316 330.358 302.418 342.915C302.519 355.471 299.339 367.837 293.193 378.788C287.047 389.738 278.147 398.893 267.375 405.347C256.603 411.801 244.332 415.329 231.778 415.583C219.223 415.838 206.819 412.808 195.795 406.796C184.771 400.783 175.508 391.995 168.924 381.303C162.339 370.61 158.662 358.383 158.255 345.832L158.219 343.496L158.255 341.16C158.659 328.708 162.282 316.573 168.772 305.938C175.262 295.304 184.397 286.532 195.286 280.479C206.175 274.425 218.446 271.297 230.904 271.398C243.363 271.499 255.582 274.827 266.371 281.056ZM230.32 300.235C228.554 300.236 226.85 300.884 225.53 302.057C224.21 303.231 223.367 304.848 223.161 306.602L223.11 307.445V343.496L223.175 344.441C223.34 345.692 223.829 346.877 224.596 347.88L225.223 348.601L246.853 370.231L247.531 370.822C248.795 371.804 250.35 372.336 251.951 372.336C253.551 372.336 255.106 371.804 256.371 370.822L257.048 370.224L257.647 369.546C258.628 368.282 259.16 366.727 259.16 365.126C259.16 363.526 258.628 361.971 257.647 360.707L257.048 360.029L237.531 340.504V307.445L237.48 306.602C237.273 304.848 236.43 303.231 235.111 302.057C233.791 300.884 232.086 300.236 230.32 300.235Z" fill="white" fill-opacity="0.8"/>
<path d="M875.918 360.37L937.895 198.845H997.651L863.638 541.72H808.274L847.301 434.35L751.594 198.845H813.548L875.918 360.37ZM1125.42 192.251C1153.39 192.251 1176.83 199.357 1195.72 213.57C1214.76 227.637 1226.92 246.906 1232.19 271.376L1172.43 287.201C1168.92 274.893 1162.77 265.295 1153.98 258.408C1145.34 251.521 1135.52 248.078 1124.54 248.078C1111.94 248.078 1101.62 251.155 1093.56 257.31C1085.51 263.317 1079.58 271.596 1075.77 282.146C1071.96 292.549 1070.05 304.345 1070.05 317.532C1070.05 338.192 1074.6 354.97 1083.68 367.864C1092.9 380.612 1106.52 386.986 1124.54 386.986C1138.01 386.986 1148.27 383.909 1155.3 377.755C1162.33 371.601 1167.6 362.809 1171.12 351.38L1232.19 364.128C1225.45 389.331 1212.71 408.746 1193.96 422.373C1175.22 436 1152.07 442.813 1124.54 442.813C1099.93 442.813 1078.84 437.319 1061.27 426.329C1043.69 415.34 1030.22 400.393 1020.84 381.491C1011.47 362.589 1006.78 341.27 1006.78 317.532C1006.78 293.502 1011.62 272.035 1021.28 253.133C1031.1 234.231 1044.86 219.359 1062.59 208.516C1080.31 197.673 1101.25 192.251 1125.42 192.251ZM1662.24 192.251C1687.14 192.251 1708.31 198.112 1725.74 209.834C1743.16 221.556 1756.05 238.041 1764.4 259.287C1772.75 280.534 1775.68 305.517 1773.19 334.236H1606.59C1608.45 348.483 1612.87 360.059 1619.84 368.964C1629.51 380.979 1643.64 386.986 1662.24 386.986C1673.96 386.986 1683.99 384.422 1692.34 379.294C1700.69 374.165 1707.06 366.766 1711.46 357.095L1771.21 374.238C1762.28 395.924 1748.14 412.776 1728.81 424.791C1709.62 436.806 1688.61 442.813 1665.76 442.813C1641.45 442.813 1619.99 437.611 1601.39 427.208C1582.93 416.658 1568.43 402.225 1557.89 383.909C1547.49 365.447 1542.29 344.347 1542.29 320.609C1542.29 294.674 1547.42 272.108 1557.67 252.913C1567.92 233.718 1582.05 218.846 1600.07 208.296C1618.08 197.599 1638.81 192.251 1662.24 192.251ZM1929.57 192.251C1953.44 192.251 1974.39 197.599 1992.4 208.296C2010.56 218.992 2024.69 233.792 2034.8 252.693C2044.91 271.449 2049.96 293.062 2049.96 317.532C2049.96 342.149 2044.83 363.908 2034.58 382.811C2024.48 401.566 2010.34 416.292 1992.18 426.988C1974.17 437.538 1953.29 442.813 1929.57 442.813C1905.69 442.813 1884.75 437.465 1866.73 426.769C1848.72 416.072 1834.66 401.346 1824.55 382.591C1814.59 363.689 1809.61 342.002 1809.61 317.532C1809.61 292.769 1814.74 271.009 1824.99 252.254C1835.24 233.352 1849.38 218.626 1867.39 208.076C1885.41 197.526 1906.13 192.251 1929.57 192.251ZM738.292 179.503H604.717V248.078H711.928V307.861H604.717V436.22H544.96V119.72H738.292V179.503ZM1328.86 223.253C1334.32 217.137 1340.62 211.711 1347.75 206.977C1363.13 196.866 1382.47 191.812 1405.75 191.812C1424.35 191.812 1439.51 194.962 1451.23 201.263C1462.95 207.563 1472.03 215.549 1478.47 225.22C1485.06 234.89 1489.75 245.001 1492.53 255.551C1495.32 265.954 1497 275.479 1497.58 284.124C1498.17 292.769 1498.46 299.07 1498.46 303.026V436.22H1437.83V324.126C1437.83 318.705 1437.54 311.818 1436.95 303.466C1436.36 294.967 1434.53 286.468 1431.46 277.97C1428.39 269.492 1416.36 256.715 1416.3 256.65L1386.86 248.078C1386.79 248.083 1376.22 248.889 1370.38 250.496C1364.52 252.108 1359.03 255.258 1353.9 259.947C1348.78 264.49 1344.53 271.23 1341.16 280.168C1337.94 289.106 1336.33 300.975 1336.33 315.773V436.22H1275.69V119.72H1328.86V223.253ZM1929.57 248.078C1916.53 248.078 1905.84 251.009 1897.49 256.87C1889.14 262.731 1882.92 270.863 1878.82 281.267C1874.86 291.67 1872.89 303.759 1872.89 317.532C1872.89 338.779 1877.65 355.702 1887.17 368.304C1896.83 380.759 1910.97 386.986 1929.57 386.986C1948.75 386.986 1963.03 380.539 1972.41 367.645C1981.93 354.604 1986.69 337.899 1986.69 317.532C1986.69 296.432 1981.85 279.582 1972.19 266.98C1962.67 254.379 1948.46 248.078 1929.57 248.078ZM1664.88 244.122C1644.52 244.122 1629.51 250.349 1619.84 262.804C1614.38 269.863 1610.49 278.875 1608.16 289.839H1712.73C1710.98 276.999 1707.55 267.108 1702.45 260.167C1694.83 249.47 1682.31 244.122 1664.88 244.122Z" fill="white"/>
<defs>
<linearGradient id="paint0_linear_894_37" x1="313.469" y1="2.39109e-06" x2="224.5" y2="449" gradientUnits="userSpaceOnUse">
<stop stop-color="#6DDDB8"/>
<stop offset="0.212178" stop-color="#10B981"/>
<stop offset="0.852717" stop-color="#046746"/>
</linearGradient>
<linearGradient id="paint1_linear_894_37" x1="313.469" y1="2.39109e-06" x2="224.5" y2="449" gradientUnits="userSpaceOnUse">
<stop stop-color="#EFBE6B"/>
<stop offset="0.212178" stop-color="#DE900D"/>
<stop offset="0.852717" stop-color="#945D00"/>
</linearGradient>
<linearGradient id="paint2_linear_894_37" x1="313.469" y1="2.39109e-06" x2="224.5" y2="449" gradientUnits="userSpaceOnUse">
<stop stop-color="#FF9CCD"/>
<stop offset="0.212178" stop-color="#EC4899"/>
<stop offset="0.852717" stop-color="#BC025E"/>
</linearGradient>
<linearGradient id="paint3_linear_894_37" x1="313.469" y1="2.39109e-06" x2="224.5" y2="449" gradientUnits="userSpaceOnUse">
<stop stop-color="#3175FF"/>
<stop offset="0.212178" stop-color="#135BEC"/>
<stop offset="0.852717" stop-color="#0B3486"/>
</linearGradient>
</defs>
</svg>
