<svg width="2438" height="545" viewBox="0 0 2438 545" fill="none" xmlns="http://www.w3.org/2000/svg">
<path d="M65.5683 58.7263C65.5683 36.3692 83.6923 18.2451 106.05 18.2451H332.973C355.33 18.2451 373.454 36.3692 373.454 58.7263V285.65C373.454 308.007 355.33 326.131 332.973 326.131H106.05C83.6923 326.131 65.5683 308.007 65.5683 285.65V58.7263Z" fill="url(#paint0_linear_893_31)"/>
<path d="M204.015 233.195V111.181H235.007V233.195H204.015ZM158.219 187.612V156.764H280.803V187.612H158.219Z" fill="white"/>
<path d="M112.256 48.5095C118.043 26.9141 140.24 14.0985 161.836 19.8849L381.026 78.617C402.622 84.4034 415.438 106.601 409.651 128.196L350.919 347.387C345.133 368.983 322.935 381.798 301.34 376.012L82.1488 317.28C60.5535 311.493 47.7378 289.296 53.5243 267.7L112.256 48.5095Z" fill="url(#paint1_linear_893_31)"/>
<path d="M200.83 252.866L232.409 135.009L262.346 143.031L230.766 260.887L200.83 252.866ZM168.392 196.983L176.376 167.186L294.783 198.913L286.799 228.71L168.392 196.983Z" fill="white"/>
<path d="M39.5554 128.196C33.769 106.601 46.5846 84.4034 68.18 78.617L287.371 19.8849C308.966 14.0985 331.164 26.9142 336.95 48.5095L395.682 267.7C401.469 289.296 388.653 311.493 367.058 317.28L147.867 376.012C126.271 381.798 104.074 368.983 98.2875 347.387L39.5554 128.196Z" fill="url(#paint2_linear_893_31)"/>
<path d="M218.44 260.887L186.861 143.031L216.797 135.009L248.377 252.866L218.44 260.887ZM162.407 228.71L154.423 198.913L272.83 167.186L280.814 196.983L162.407 228.71Z" fill="#404040" fill-opacity="0.52"/>
<path d="M40.1962 246.879H411.084V399.396C411.084 421.753 392.96 439.877 370.603 439.877H80.6775C58.3203 439.877 40.1962 421.753 40.1962 399.396V246.879Z" fill="url(#paint3_linear_893_31)"/>
<path d="M266.371 281.056C277.246 287.335 286.292 296.346 292.615 307.195C298.937 318.045 302.316 330.358 302.418 342.915C302.519 355.471 299.339 367.837 293.193 378.788C287.047 389.738 278.147 398.893 267.375 405.347C256.603 411.801 244.332 415.329 231.778 415.583C219.223 415.838 206.819 412.808 195.795 406.796C184.771 400.783 175.508 391.995 168.924 381.303C162.339 370.61 158.662 358.383 158.255 345.832L158.219 343.496L158.255 341.16C158.659 328.708 162.282 316.573 168.772 305.938C175.262 295.304 184.397 286.532 195.286 280.479C206.175 274.425 218.446 271.297 230.904 271.398C243.363 271.499 255.582 274.827 266.371 281.056ZM230.32 300.235C228.554 300.236 226.85 300.884 225.53 302.057C224.21 303.231 223.367 304.848 223.161 306.602L223.11 307.445V343.496L223.175 344.441C223.34 345.692 223.829 346.877 224.596 347.88L225.223 348.601L246.853 370.231L247.531 370.822C248.795 371.804 250.35 372.336 251.951 372.336C253.551 372.336 255.106 371.804 256.371 370.822L257.048 370.224L257.647 369.546C258.628 368.282 259.16 366.727 259.16 365.126C259.16 363.526 258.628 361.971 257.647 360.707L257.048 360.029L237.531 340.504V307.445L237.48 306.602C237.273 304.848 236.43 303.231 235.111 302.057C233.791 300.884 232.086 300.236 230.32 300.235Z" fill="white" fill-opacity="0.8"/>
<path d="M875.918 363.65L937.895 202.125H997.651L863.638 545H808.274L847.301 437.63L751.594 202.125H813.548L875.918 363.65ZM1125.42 195.531C1153.39 195.531 1176.83 202.637 1195.72 216.851C1214.76 230.917 1226.92 250.186 1232.19 274.656L1172.43 290.481C1168.92 278.173 1162.77 268.575 1153.98 261.688C1145.34 254.802 1135.52 251.358 1124.54 251.358C1111.94 251.358 1101.62 254.436 1093.56 260.59C1085.51 266.597 1079.58 274.876 1075.77 285.426C1071.96 295.829 1070.05 307.625 1070.05 320.812C1070.05 341.473 1074.6 358.25 1083.68 371.145C1092.9 383.892 1106.52 390.267 1124.54 390.267C1138.01 390.267 1148.27 387.189 1155.3 381.035C1162.33 374.881 1167.6 366.089 1171.12 354.66L1232.19 367.408C1225.45 392.611 1212.71 412.026 1193.96 425.653C1175.22 439.28 1152.07 446.094 1124.54 446.094C1099.93 446.094 1078.84 440.599 1061.27 429.609C1043.69 418.62 1030.22 403.674 1020.84 384.771C1011.47 365.869 1006.78 344.55 1006.78 320.812C1006.78 296.782 1011.62 275.315 1021.28 256.413C1031.1 237.511 1044.86 222.639 1062.59 211.796C1080.31 200.953 1101.25 195.531 1125.42 195.531ZM1662.24 195.531C1687.14 195.531 1708.31 201.392 1725.74 213.114C1743.16 224.836 1756.05 241.321 1764.4 262.567C1772.75 283.814 1775.68 308.797 1773.19 337.517H1606.59C1608.45 351.763 1612.87 363.339 1619.84 372.244C1629.51 384.259 1643.64 390.267 1662.24 390.267C1673.96 390.267 1683.99 387.702 1692.34 382.574C1700.69 377.446 1707.06 370.046 1711.46 360.375L1771.21 377.519C1762.28 399.205 1748.14 416.056 1728.81 428.071C1709.62 440.086 1688.61 446.094 1665.76 446.094C1641.45 446.094 1619.99 440.892 1601.39 430.488C1582.93 419.938 1568.43 405.505 1557.89 387.189C1547.49 368.727 1542.29 347.627 1542.29 323.89C1542.29 297.954 1547.42 275.389 1557.67 256.193C1567.92 236.998 1582.05 222.126 1600.07 211.576C1618.08 200.88 1638.81 195.531 1662.24 195.531ZM1929.57 195.531C1953.44 195.531 1974.39 200.88 1992.4 211.576C2010.56 222.273 2024.69 237.072 2034.8 255.974C2044.91 274.729 2049.96 296.342 2049.96 320.812C2049.96 345.429 2044.83 367.189 2034.58 386.091C2024.48 404.846 2010.34 419.572 1992.18 430.269C1974.17 440.819 1953.29 446.094 1929.57 446.094C1905.69 446.094 1884.75 440.745 1866.73 430.049C1848.72 419.352 1834.66 404.627 1824.55 385.871C1814.59 366.969 1809.61 345.283 1809.61 320.812C1809.61 296.049 1814.74 274.29 1824.99 255.534C1835.24 236.632 1849.38 221.906 1867.39 211.356C1885.41 200.806 1906.13 195.531 1929.57 195.531ZM1328.86 226.533C1334.32 220.417 1340.62 214.991 1347.75 210.257C1363.13 200.146 1382.47 195.092 1405.75 195.092C1424.35 195.092 1439.51 198.242 1451.23 204.543C1462.95 210.844 1472.03 218.829 1478.47 228.5C1485.06 238.171 1489.75 248.281 1492.53 258.831C1495.32 269.235 1497 278.759 1497.58 287.404C1498.17 296.049 1498.46 302.35 1498.46 306.307V439.5H1437.83V327.406C1437.83 321.985 1437.54 315.098 1436.95 306.746C1436.36 298.247 1434.53 289.749 1431.46 281.25C1428.38 272.751 1423.33 265.645 1416.3 259.931C1409.41 254.216 1399.6 251.358 1386.86 251.358C1381.73 251.358 1376.24 252.165 1370.38 253.776C1364.52 255.388 1359.03 258.539 1353.9 263.228C1348.78 267.77 1344.53 274.51 1341.16 283.448C1337.94 292.386 1336.33 304.255 1336.33 319.054V439.5C1314.34 448.167 1275.83 439.53 1275.69 439.5V123H1328.86V226.533ZM738.292 182.783H604.717V251.358H711.928V311.142H604.717V439.5H544.96V123H738.292V182.783ZM1929.57 251.358C1916.53 251.358 1905.84 254.289 1897.49 260.15C1889.14 266.012 1882.92 274.143 1878.82 284.547C1874.86 294.95 1872.89 307.039 1872.89 320.812C1872.89 342.059 1877.65 358.983 1887.17 371.584C1896.83 384.039 1910.97 390.267 1929.57 390.267C1948.75 390.267 1963.03 383.819 1972.41 370.925C1981.93 357.884 1986.69 341.18 1986.69 320.812C1986.69 299.713 1981.85 282.862 1972.19 270.261C1962.67 257.659 1948.46 251.358 1929.57 251.358ZM1664.88 247.402C1644.52 247.402 1629.51 253.629 1619.84 266.084C1614.38 273.143 1610.49 282.156 1608.16 293.119H1712.73C1710.98 280.279 1707.55 270.388 1702.45 263.447C1694.83 252.751 1682.31 247.402 1664.88 247.402Z" fill="white"/>
<path d="M2096.96 440V347.84H2112.58L2143.04 409.024L2173.5 347.84H2189.12V440H2172.86V384.96L2146.11 440H2139.97L2113.22 384.96V440H2096.96ZM2254.19 440V407.36C2254.19 405.781 2254.1 403.776 2253.93 401.344C2253.76 398.869 2253.23 396.395 2252.33 393.92C2251.44 391.445 2249.97 389.376 2247.92 387.712C2245.91 386.048 2243.05 385.216 2239.34 385.216C2237.85 385.216 2236.25 385.451 2234.54 385.92C2232.83 386.389 2231.23 387.307 2229.74 388.672C2228.25 389.995 2227.01 391.957 2226.03 394.56C2225.09 397.163 2224.62 400.619 2224.62 404.928L2214.64 400.192C2214.64 394.731 2215.75 389.611 2217.97 384.832C2220.18 380.053 2223.51 376.192 2227.95 373.248C2232.43 370.304 2238.06 368.832 2244.85 368.832C2250.26 368.832 2254.68 369.749 2258.09 371.584C2261.51 373.419 2264.15 375.744 2266.03 378.56C2267.95 381.376 2269.31 384.32 2270.12 387.392C2270.94 390.421 2271.43 393.195 2271.6 395.712C2271.77 398.229 2271.85 400.064 2271.85 401.216V440H2254.19ZM2206.96 440V370.88H2222.45V393.792H2224.62V440H2206.96ZM2318.03 472.64C2314.1 472.64 2310.37 472 2306.83 470.72C2303.29 469.483 2300.11 467.733 2297.29 465.472C2294.52 463.253 2292.26 460.651 2290.51 457.664L2306.64 449.856C2307.75 451.904 2309.32 453.461 2311.37 454.528C2313.46 455.595 2315.72 456.128 2318.16 456.128C2320.76 456.128 2323.21 455.68 2325.52 454.784C2327.82 453.931 2329.65 452.629 2331.02 450.88C2332.43 449.173 2333.09 447.04 2333 444.48V424.384H2335.18V370.88H2350.41V444.736C2350.41 446.443 2350.33 448.043 2350.16 449.536C2350.03 451.072 2349.77 452.587 2349.39 454.08C2348.28 458.304 2346.21 461.781 2343.18 464.512C2340.19 467.243 2336.52 469.269 2332.17 470.592C2327.82 471.957 2323.11 472.64 2318.03 472.64ZM2316.49 441.92C2310.13 441.92 2304.57 440.32 2299.79 437.12C2295.01 433.92 2291.28 429.568 2288.59 424.064C2285.94 418.56 2284.62 412.352 2284.62 405.44C2284.62 398.4 2285.96 392.149 2288.65 386.688C2291.38 381.184 2295.2 376.853 2300.11 373.696C2305.01 370.539 2310.77 368.96 2317.39 368.96C2323.96 368.96 2329.48 370.56 2333.96 373.76C2338.44 376.96 2341.84 381.312 2344.14 386.816C2346.44 392.32 2347.6 398.528 2347.6 405.44C2347.6 412.352 2346.42 418.56 2344.08 424.064C2341.77 429.568 2338.32 433.92 2333.71 437.12C2329.1 440.32 2323.36 441.92 2316.49 441.92ZM2319.31 426.432C2323.19 426.432 2326.28 425.557 2328.59 423.808C2330.93 422.059 2332.62 419.605 2333.64 416.448C2334.67 413.291 2335.18 409.621 2335.18 405.44C2335.18 401.259 2334.67 397.589 2333.64 394.432C2332.62 391.275 2330.98 388.821 2328.72 387.072C2326.5 385.323 2323.57 384.448 2319.95 384.448C2316.07 384.448 2312.87 385.408 2310.35 387.328C2307.87 389.205 2306.04 391.744 2304.84 394.944C2303.65 398.101 2303.05 401.6 2303.05 405.44C2303.05 409.323 2303.63 412.864 2304.78 416.064C2305.93 419.221 2307.7 421.739 2310.09 423.616C2312.48 425.493 2315.55 426.432 2319.31 426.432ZM2368.34 440V370.88H2383.7V387.776L2382.03 385.6C2382.93 383.211 2384.12 381.035 2385.62 379.072C2387.11 377.109 2388.94 375.488 2391.12 374.208C2392.78 373.184 2394.6 372.395 2396.56 371.84C2398.52 371.243 2400.55 370.88 2402.64 370.752C2404.73 370.581 2406.82 370.624 2408.91 370.88V387.136C2406.99 386.539 2404.75 386.347 2402.19 386.56C2399.67 386.731 2397.39 387.307 2395.34 388.288C2393.3 389.227 2391.57 390.485 2390.16 392.064C2388.75 393.6 2387.68 395.435 2386.96 397.568C2386.23 399.659 2385.87 402.027 2385.87 404.672V440H2368.34Z" fill="#3175FF"/>
<defs>
<linearGradient id="paint0_linear_893_31" x1="313.469" y1="2.39109e-06" x2="224.5" y2="449" gradientUnits="userSpaceOnUse">
<stop stop-color="#6DDDB8"/>
<stop offset="0.212178" stop-color="#10B981"/>
<stop offset="0.852717" stop-color="#046746"/>
</linearGradient>
<linearGradient id="paint1_linear_893_31" x1="313.469" y1="2.39109e-06" x2="224.5" y2="449" gradientUnits="userSpaceOnUse">
<stop stop-color="#EFBE6B"/>
<stop offset="0.212178" stop-color="#DE900D"/>
<stop offset="0.852717" stop-color="#945D00"/>
</linearGradient>
<linearGradient id="paint2_linear_893_31" x1="313.469" y1="2.39109e-06" x2="224.5" y2="449" gradientUnits="userSpaceOnUse">
<stop stop-color="#FF9CCD"/>
<stop offset="0.212178" stop-color="#EC4899"/>
<stop offset="0.852717" stop-color="#BC025E"/>
</linearGradient>
<linearGradient id="paint3_linear_893_31" x1="313.469" y1="2.39109e-06" x2="224.5" y2="449" gradientUnits="userSpaceOnUse">
<stop stop-color="#3175FF"/>
<stop offset="0.212178" stop-color="#135BEC"/>
<stop offset="0.852717" stop-color="#0B3486"/>
</linearGradient>
</defs>
</svg>
